<?xml version="1.0" encoding="utf-8"?>
<!-- Generator: Adobe Illustrator 21.0.2, SVG Export Plug-In . SVG Version: 6.00 Build 0)  -->
<svg version="1.1" id="Camada_1" xmlns:svgjs="http://svgjs.com/svgjs"
	 xmlns="http://www.w3.org/2000/svg" xmlns:xlink="http://www.w3.org/1999/xlink" x="0px" y="0px" viewBox="0 0 512 512"
	 style="enable-background:new 0 0 512 512;" xml:space="preserve">
<style type="text/css">
	.st0{fill:#FFFFFF;}
</style>
<g>
	<g>
		<g>
			<g>
				<g>
					<path class="st0" d="M451,300.1V100c0-21.5-17.5-39-39-39h-58.5V31.7c0-5.4-4.4-9.7-9.7-9.7s-9.8,4.4-9.8,9.8V61H158.5V31.8
						c0-5.4-4.4-9.8-9.7-9.8s-9.8,4.4-9.8,9.8V61H61c-21.5,0-39,17.5-39,39v312c0,21.5,17.5,39,39,39h239.1
						c19.7,23.8,49.4,39,82.7,39c59.1,0,107.2-48.1,107.2-107.2C490,349.5,474.8,319.8,451,300.1z M41.5,100
						c0-10.7,8.7-19.5,19.5-19.5h78V100c-10.8,0-19.5,8.8-19.5,19.5S128.2,139,139,139s19.5-8.8,19.5-19.5v-39H334V100
						c-10.8,0-19.5,8.8-19.5,19.5S323.2,139,334,139c10.8,0,19.5-8.8,19.5-19.5v-39H412c10.8,0,19.5,8.8,19.5,19.5v58.5h-390V100z
						 M61,431.5c-10.8,0-19.5-8.8-19.5-19.5V178h390v109.3c-14.6-7.5-31.2-11.8-48.7-11.8c-59.1,0-107.2,48.1-107.2,107.2
						c0,17.6,4.3,34.1,11.8,48.7H61z M382.8,470.5c-48.4,0-87.8-39.4-87.8-87.8s39.4-87.8,87.8-87.8s87.8,39.4,87.8,87.8
						S431.1,470.5,382.8,470.5z"/>
					<path class="st0" d="M382.8,500c-33.4,0-65-14.2-87.2-39H61c-27,0-49-22-49-49V100c0-27,22-49,49-49h68V31.8
						c0-10.9,8.9-19.8,19.8-19.8c10.9,0,19.7,8.9,19.7,19.8V51H324V31.8c0-10.9,8.9-19.8,19.8-19.8c5.3,0,10.2,2.1,14,5.8
						c3.7,3.7,5.8,8.7,5.8,14V51H412c27,0,49,22,49,49v195.5c24.8,22.3,39,53.8,39,87.2C500,447.4,447.4,500,382.8,500z M382.8,305
						c-42.9,0-77.8,34.9-77.8,77.8s34.9,77.8,77.8,77.8s77.8-34.9,77.8-77.8S425.6,305,382.8,305z M303.5,441h0.8
						c-1.1-1.5-2.1-2.9-3.1-4.4L303.5,441z M51.5,188v224c0,5.2,4.3,9.5,9.5,9.5h211.1c-4.4-12.4-6.6-25.4-6.6-38.8
						c0-64.7,52.6-117.2,117.2-117.2c13.3,0,26.3,2.2,38.8,6.6V188H51.5z M436.6,301.2c1.5,1,3,2,4.4,3.1v-0.8L436.6,301.2z
						 M339.4,148.5h82.1V100c0-5.2-4.3-9.5-9.5-9.5h-48.5v29C363.5,133.9,353.1,145.9,339.4,148.5z M144.4,148.5h184.2
						c-13.7-2.6-24.1-14.6-24.1-29c0-12.8,8.1-23.6,19.5-27.8v-1.2H168.5v29C168.5,133.9,158.1,145.9,144.4,148.5z M51.5,148.5h82.1
						c-13.7-2.6-24.1-14.6-24.1-29c0-12.8,8.1-23.6,19.5-27.8v-1.2H61c-5.2,0-9.5,4.3-9.5,9.5V148.5z M334,110
						c-5.2,0-9.5,4.3-9.5,9.5s4.3,9.5,9.5,9.5c5.2,0,9.5-4.3,9.5-9.5V110H334z M139,110c-5.2,0-9.5,4.3-9.5,9.5s4.3,9.5,9.5,9.5
						s9.5-4.3,9.5-9.5V110H139z"/>
				</g>
				<g>
					<path class="st0" d="M421.7,373h-29.2v-29.2c0-5.4-4.4-9.8-9.8-9.8c-5.4,0-9.7,4.4-9.7,9.8V373h-29.2c-5.4,0-9.8,4.4-9.8,9.8
						s4.4,9.8,9.8,9.8H373v29.2c0,5.4,4.4,9.8,9.8,9.8s9.8-4.4,9.8-9.8v-29.2h29.2c5.4,0,9.8-4.4,9.8-9.8S427.1,373,421.7,373z"/>
					<path class="st0" d="M382.8,441.5c-10.9,0-19.8-8.9-19.8-19.8v-19.2h-19.2c-10.9,0-19.8-8.9-19.8-19.8s8.9-19.8,19.8-19.8H363
						v-19.2c0-10.9,8.9-19.8,19.7-19.8c10.9,0,19.8,8.9,19.8,19.8V363h19.2c10.9,0,19.8,8.9,19.8,19.8s-8.9,19.8-19.8,19.8h-19.2
						v19.2C402.5,432.6,393.6,441.5,382.8,441.5z"/>
				</g>
			</g>
		</g>
	</g>
</g>
</svg>
