<?xml version="1.0" encoding="utf-8"?>
<!-- Generator: Adobe Illustrator 21.0.2, SVG Export Plug-In . SVG Version: 6.00 Build 0)  -->
<svg version="1.1" id="Camada_1" xmlns:svgjs="http://svgjs.com/svgjs"
	 xmlns="http://www.w3.org/2000/svg" xmlns:xlink="http://www.w3.org/1999/xlink" x="0px" y="0px" viewBox="0 0 512 512"
	 style="enable-background:new 0 0 512 512;" xml:space="preserve">
<style type="text/css">
	.st0{fill:#FFFFFF;}
</style>
<g>
	<g>
		<g>
			<g>
				<path class="st0" d="M490,172.4c-4-4-10.6-4-14.6,0L256,391.8L36.6,172.4c-4-4-10.6-4-14.6,0s-4,10.6,0,14.6l226.7,226.7
					c2,2,4.7,3,7.3,3c2.6,0,5.3-1,7.3-3L490,186.9C494,182.9,494,176.4,490,172.4z"/>
				<path class="st0" d="M256,431.7c-6.7,0-13.1-2.6-17.8-7.3L11.4,197.6C6.6,192.8,4,186.4,4,179.7c0-6.8,2.6-13.1,7.4-17.9
					c9.9-9.9,25.9-9.9,35.8,0L256,370.6l208.8-208.8c4.8-4.8,11.1-7.4,17.9-7.4c6.8,0,13.1,2.6,17.9,7.4v0c9.9,9.9,9.9,25.9,0,35.8
					L273.9,424.2C269.2,429,262.8,431.7,256,431.7z"/>
			</g>
		</g>
	</g>
</g>
</svg>
