<?xml version="1.0" encoding="utf-8"?>
<!-- Generator: Adobe Illustrator 21.0.2, SVG Export Plug-In . SVG Version: 6.00 Build 0)  -->
<svg version="1.1" id="Camada_1" xmlns:svgjs="http://svgjs.com/svgjs"
	 xmlns="http://www.w3.org/2000/svg" xmlns:xlink="http://www.w3.org/1999/xlink" x="0px" y="0px" viewBox="0 0 512 512"
	 style="enable-background:new 0 0 512 512;" xml:space="preserve">
<style type="text/css">
	.st0{fill:#FFFFFF;}
</style>
<g>
	<g>
		<g>
			<g>
				<path class="st0" d="M22,413.7c4,4,10.6,4,14.6,0L256,194.3l219.4,219.4c4,4,10.6,4,14.6,0s4-10.6,0-14.6L263.3,172.4
					c-2-2-4.7-3-7.3-3s-5.3,1-7.3,3L22,399.2C18,403.2,18,409.7,22,413.7z"/>
				<path class="st0" d="M256,154.4c6.7,0,13.1,2.6,17.8,7.3l226.8,226.8c4.8,4.8,7.4,11.2,7.4,17.9c0,6.8-2.6,13.1-7.4,17.9
					c-9.9,9.9-25.9,9.9-35.8,0L256,215.5L47.2,424.3c-4.8,4.8-11.1,7.4-17.9,7.4s-13.1-2.6-17.9-7.4l0,0c-9.9-9.9-9.9-25.9,0-35.8
					l226.7-226.6C242.8,157.1,249.2,154.4,256,154.4z"/>
			</g>
		</g>
	</g>
</g>
</svg>
